HIERARCHY
ROOT Hip
{
	OFFSET 0 0 0
	CHANNELS 6 Xposition Yposition Zposition Zrotation Yrotation Xrotation
	JOINT ShoulderCenter
	{
		OFFSET 0 0.4363 0
		CHANNELS 3 Zrotation Yrotation Xrotation
		JOINT Head
		{
			OFFSET 0 0.1849 0
			CHANNELS 3 Zrotation Yrotation Xrotation
			End Site
			{
				OFFSET 0.0 0.0891 0.0
			}
		}
		JOINT ShoulderLeft
		{
			OFFSET -0.14 0 0
			CHANNELS 3 Zrotation Yrotation Xrotation
			JOINT ElbowLeft
			{
				OFFSET -0.25 0 0
				CHANNELS 3 Zrotation Yrotation Xrotation
				JOINT WristLeft
				{
					OFFSET -0.23 0 0
					CHANNELS 3 Zrotation Yrotation Xrotation
					End Site
					{
						OFFSET -0.0832 0.0 0.0
					}
				}
			}
		}
		JOINT ShoulderRight
		{
			OFFSET 0.14 0 0
			CHANNELS 3 Zrotation Yrotation Xrotation
			JOINT ElbowRight
			{
				OFFSET 0.25 0 0
				CHANNELS 3 Zrotation Yrotation Xrotation
				JOINT WristRight
				{
					OFFSET 0.23 0 0
					CHANNELS 3 Zrotation Yrotation Xrotation
					End Site
					{
						OFFSET 0.0832 0.0 0.0
					}
				}
			}
		}
	}
	JOINT HipLeft
	{
		OFFSET -0.0952 0 0
		CHANNELS 3 Zrotation Yrotation Xrotation
		JOINT KneeLeft
		{
			OFFSET 0 -0.3732 0
			CHANNELS 3 Zrotation Yrotation Xrotation
			JOINT AnkleLeft
			{
				OFFSET 0 -0.346 0
				CHANNELS 3 Zrotation Yrotation Xrotation
				End Site
				{
					OFFSET 0.0 0.0 0.0891
				}
			}
		}
	}
	JOINT HipRight
	{
		OFFSET 0.0952 0 0
		CHANNELS 3 Zrotation Yrotation Xrotation
		JOINT KneeRight
		{
			OFFSET 0 -0.3732 0
			CHANNELS 3 Zrotation Yrotation Xrotation
			JOINT AnkleRight
			{
				OFFSET 0 -0.346 0
				CHANNELS 3 Zrotation Yrotation Xrotation
				End Site
				{
					OFFSET 0.0 0.0 0.0891
				}
			}
		}
	}
}
MOTION
Frames: 36
Frame Time: 0.033333
0.00019776 -7.10756e-005 -0.00243914 4.13479 -28.2723 -9.24578 16.0417 -28.4508 -0.420096 0 0 0 111.454 1.14046 -93.0032 -7.17394e-006 68.6192 -4.63855e-006 0 0 0 0 0 0 0 0 0 0 0 0 22.9638 62.037 5.25799 -57.4072 5.58534 0.939857 0 0 0 3.47216 -2.10847 -2.9348 5.80322 -6.07194 -14.7578 0 0 0 
0.000196417 -7.06627e-005 -0.0024408 3.99877 -28.8048 -9.10863 16.16 -27.9632 -0.309999 0 0 0 111.496 1.1404 -92.2547 -2.05302e-006 67.576 -3.82862e-006 0 0 0 0 0 0 0 0 0 0 0 0 21.5049 46.2268 2.95509 -46.5779 -33.6863 -12.8256 0 0 0 4.12742 -2.06631 -3.07583 5.11063 -6.42581 -14.9705 0 0 0 
0.000196417 -7.06627e-005 -0.0024408 4.01872 -28.7968 -9.10974 16.1429 -27.9444 -0.320303 0 0 0 111.499 1.14698 -91.9814 -1.2104e-005 67.2348 -1.06501e-005 0 0 0 0 0 0 0 0 0 0 0 0 21.5082 46.5117 2.9825 -45.1154 -36.7747 -14.3391 0 0 0 4.11099 -2.10372 -3.08474 5.31034 -6.47329 -15.1945 1.96774e-007 9.19636e-007 1.29234e-008 
0.000196417 -7.06627e-005 -0.0024408 4.06248 -28.7969 -9.10945 16.0895 -27.9174 -0.367749 -5.01525e-007 -2.22032e-007 7.50168e-008 111.521 1.11678 -91.821 -3.85474e-006 66.7518 2.54009e-006 3.66736e-007 1.58476e-007 4.63437e-008 0 0 0 0 0 0 0 0 0 21.7924 50.6047 3.20108 -40.5443 -48.9627 -18.7252 0 0 0 4.05533 -2.14537 -3.13471 5.35904 -6.46833 -15.13 1.97824e-007 9.16498e-007 1.54468e-008 
0.000197373 -7.1511e-005 -0.00243856 3.81675 -25.8519 -9.13516 16.3009 -30.9273 -1.06152 0 0 0 111.461 1.18555 -91.6941 7.0588e-006 66.6498 4.83784e-006 0 0 0 0 0 0 0 0 0 0 0 0 22.9129 66.154 4.66547 -57.0968 20.855 2.74797 0 0 0 2.94221 -2.35825 -3.36227 5.54473 -6.56721 -14.8076 2.08525e-007 1.10209e-006 3.31291e-008 
0.000197373 -7.1511e-005 -0.00243849 3.9201 -26.0979 -9.13558 16.2659 -30.5744 -1.01756 0 0 0 111.428 1.24439 -91.8759 -6.50194e-008 66.6449 1.76186e-006 0 0 0 0 0 0 0 0 0 0 0 0 22.9119 66.1136 4.71202 -57.229 19.7291 2.49296 0 0 0 2.78945 -2.41732 -3.36743 5.81652 -6.49973 -14.7569 2.13575e-007 1.08349e-006 3.84787e-008 
0.000197373 -7.1511e-005 -0.00243849 4.01235 -26.2098 -9.14443 16.2438 -30.4362 -0.955399 0 0 0 111.39 1.32177 -91.3587 9.14023e-006 67.6172 9.47213e-006 0 0 0 0 0 0 0 0 0 0 0 0 23.1668 67.8258 5.05658 -56.9034 27.1114 3.0298 0 0 0 2.70279 -2.43294 -3.33422 6.01375 -6.41662 -14.7273 2.2206e-007 1.07687e-006 4.61569e-008 
0.000196613 -7.12556e-005 -0.00243849 4.08419 -26.6186 -9.13714 16.2091 -29.9831 -0.787068 -4.91128e-007 -2.23481e-007 9.68665e-008 111.382 1.414 -92.6177 -1.51132e-005 67.6816 -1.59908e-005 0 0 0 0 0 0 0 0 0 0 0 0 23.0089 65.8779 4.81971 -57.9533 7.32035 0.575212 0 0 0 2.88247 -2.39611 -3.2606 5.93472 -6.36812 -14.4237 0 0 0 
0.000195622 -7.12556e-005 -0.00243891 4.33097 -28.4233 -9.18344 16.0981 -28.2356 -0.145192 0 0 0 111.329 1.56416 -92.6814 -3.83479e-005 67.7061 -2.85261e-005 0 0 0 0 0 0 0 0 0 0 0 0 22.0618 53.3148 3.59905 -40.853 -52.8944 -18.2468 1.12879e-006 8.05405e-007 -1.5612e-007 3.21255 -2.37589 -3.01282 6.72777 -5.86134 -14.132 2.52263e-007 9.5172e-007 1.08635e-007 
0.000194325 -7.11976e-005 -0.00243914 4.4182 -29.3113 -9.22035 16.0863 -27.4258 0.191373 0 0 0 111.288 1.62735 -92.7509 -3.11746e-006 69.5031 -4.67143e-006 0 0 0 0 0 0 0 0 0 0 0 0 22.1193 49.2745 3.5995 -30.4852 -56.0675 -28.0608 4.8087e-007 5.92387e-007 -3.26137e-007 3.67524 -2.29402 -3.05152 6.3465 -5.65281 -13.7738 2.39571e-007 9.12699e-007 1.21657e-007 
0.000194325 -7.12556e-005 -0.00243914 4.45702 -29.3161 -9.18849 16.0538 -27.484 0.116885 0 0 0 111.311 1.5658 -92.4165 -1.99897e-006 68.3134 -6.71294e-007 0 0 0 0 0 0 0 0 0 0 0 0 21.8656 46.5021 3.31389 -28.0044 -54.4656 -30.2772 0 0 0 3.54258 -2.3867 -3.20748 6.32398 -5.50954 -13.2395 0 0 0 
0.000193944 -7.13451e-005 -0.00243914 4.48079 -29.0258 -9.05041 16.0882 -27.4944 -0.17647 -4.86308e-007 -2.19059e-007 1.08844e-007 111.319 1.59792 -92.4837 2.01593e-006 66.823 1.14661e-006 0 0 0 0 0 0 0 0 0 0 0 0 21.5156 45.3784 2.90683 -27.9244 -53.2671 -30.3235 0 0 0 3.53207 -2.46765 -3.56292 5.66818 -5.73868 -13.33 0 0 0 
0.000192773 -7.20154e-005 -0.00243801 4.59945 -28.7275 -9.11075 15.9914 -27.6177 -0.0268953 0 0 0 111.304 1.8708 -92.7222 1.9277e-006 66.7589 -3.42822e-006 0 0 0 0 0 0 0 0 0 0 0 0 21.6012 46.4135 2.95075 -33.3234 -51.6119 -25.1095 3.80552e-007 8.25164e-007 -2.34406e-007 3.11494 -2.78867 -3.90228 6.08452 -5.58795 -12.6728 2.05511e-007 9.35033e-007 1.46076e-007 
0.000192589 -7.20154e-005 -0.00243801 4.69518 -28.7589 -9.05703 16.0116 -27.4226 -0.0765764 0 0 0 111.253 1.97985 -92.7983 4.46557e-006 66.7732 4.0811e-006 0 0 0 0 0 0 0 0 0 0 0 0 21.5865 46.8608 2.90733 -33.4801 -52.2785 -24.9004 0 0 0 3.19264 -2.84708 -3.93957 6.25625 -5.74556 -13.0541 0 0 0 
0.00019089 -7.20154e-005 -0.00243801 4.64796 -28.7294 -9.01857 16.1181 -27.4736 0.0322181 -2.81975e-007 -1.29674e-007 -2.29106e-007 111.206 2.12277 -92.3004 -9.41556e-006 65.5364 -8.33139e-006 0 0 0 0 0 0 0 0 0 0 0 0 21.6023 46.4001 2.878 -33.6364 -51.3382 -24.826 0 0 0 3.19162 -2.78061 -3.96701 5.82722 -5.67717 -12.735 0 0 0 
0.000189902 -7.1214e-005 -0.00243811 4.86841 -29.0101 -8.93015 16.2609 -26.7558 0.0323057 0 0 0 110.985 2.45909 -93.9345 -7.42544e-006 66.1401 -7.8729e-006 0 0 0 0 0 0 0 0 0 0 0 0 21.5108 51.8066 3.13361 -38.1303 -54.1012 -20.7249 0 0 0 3.3362 -2.69538 -3.97209 5.69885 -5.73578 -13.2769 1.99602e-007 9.05988e-007 1.19133e-007 
0.000189296 -6.99342e-005 -0.00243811 5.69285 -31.3549 -9.07398 16.1434 -23.8656 1.08954 0 0 0 110.607 3.35007 -95.3308 3.31602e-006 66.0416 1.07979e-006 0 0 0 0 0 0 0 0 0 0 0 0 20.9272 46.473 2.98473 -22.9729 -56.5672 -35.0619 0 0 0 3.01841 -2.74845 -3.86987 6.70554 -5.10791 -12.8985 -1.68061e-007 8.62145e-007 9.41752e-009 
0.000189244 -6.95523e-005 -0.00243811 5.99145 -31.2627 -8.90185 16.4373 -23.3229 0.866579 0 0 0 110.213 3.80551 -96.8514 -4.01255e-006 66.0828 -1.20826e-005 0 0 0 0 0 0 0 0 0 0 0 0 20.0079 43.8462 2.3302 -22.4991 -53.299 -35.614 0 0 0 2.57933 -2.92219 -4.20676 6.86548 -4.98139 -12.8763 -1.70248e-007 8.62995e-007 8.35445e-009 
0.000189244 -6.95523e-005 -0.00243785 6.25895 -31.2372 -8.86059 16.366 -22.9426 0.807094 0 0 0 110.123 4.06215 -97.6322 -5.4015e-006 65.9847 -1.83233e-006 0 0 0 0 0 0 0 0 0 0 0 0 19.5074 40.3705 1.86234 -21.9704 -49.3085 -36.1232 0 0 0 2.19591 -2.79848 -4.39541 5.50559 -5.73754 -13.7779 1.16193e-007 7.51814e-007 7.21855e-008 
0.000189296 -6.95523e-005 -0.00243778 6.79523 -30.9054 -8.66004 17.0072 -22.4432 0.341398 -1.55808e-007 2.60615e-008 -9.36937e-008 109.249 4.70216 -100.57 2.74095e-006 65.3808 -2.99857e-006 -1.6053e-007 -1.12412e-007 -7.51282e-008 0 0 0 0 0 0 0 0 0 18.4475 40.8046 1.1062 -21.0725 -50.1572 -37.0023 4.53908e-007 2.6216e-007 -2.35896e-007 1.73921 -3.2898 -4.82179 7.43457 -4.47479 -12.1301 0 0 0 
0.000194228 -7.79784e-005 -0.00243544 7.90068 -29.6368 -8.51089 17.2817 -22.2298 -0.570029 0 0 0 108.256 5.55699 -103.652 -4.10528e-006 64.5473 -4.50416e-006 0 0 0 0 0 0 0 0 0 0 0 0 15.3692 37.3268 -1.31055 -18.385 -49.3191 -38.7013 4.23967e-007 1.23683e-007 -2.29843e-007 -0.862123 -3.91853 -5.37874 7.77743 -5.89816 -14.2805 0 0 0 
0.000194228 -7.80031e-005 -0.0024354 9.12055 -29.4646 -8.47765 20.1007 -22.007 1.28792 0 0 0 105.021 9.28089 -104.935 -9.27136e-007 63.3793 -7.87856e-006 0 0 0 0 0 0 0 0 0 0 0 0 13.6252 42.7315 -1.78756 -21.1982 -54.198 -36.4857 0 0 0 -1.42004 -3.75121 -5.54236 6.84919 -6.50571 -15.4653 1.36032e-007 7.23237e-007 8.22756e-009 
0.000194228 -7.84374e-005 -0.0024354 11.1075 -33.2963 -8.67758 19.8783 -17.1606 2.2539 0 0 0 104.087 10.1408 -108.026 -1.61872e-005 62.9676 -1.6455e-005 0 0 0 0 0 0 0 0 0 0 0 0 11.4732 45.664 -2.4392 8.56116 -64.4406 -63.8551 -4.98916e-008 -8.22834e-007 -7.44127e-007 -2.07103 -3.82423 -5.64034 7.60449 -6.32396 -16.4426 0 0 0 
0.000194228 -7.85155e-005 -0.0024354 11.9484 -34.149 -8.54124 20.231 -15.2968 1.97523 0 0 0 103.459 10.5251 -109.691 -1.96302e-005 62.3558 -1.17379e-005 0 0 0 0 0 0 0 0 0 0 0 0 10.2218 46.8085 -3.081 34.231 -66.3514 -87.608 0 0 0 -1.99366 -3.69845 -5.46032 7.75605 -7.05154 -18.6328 0 0 0 
0.000194228 -9.43957e-005 -0.0024354 13.7766 -33.6453 -8.20356 24.1872 -14.2942 2.95264 -8.90488e-007 3.28561e-007 -1.21113e-007 101.827 20.44 -101.986 1.43671e-005 68.9651 1.08204e-005 0 0 0 0 0 0 0 0 0 0 0 0 -161.557 63.9698 -171.836 5.46026 50.2266 66.8691 0 0 0 -4.57738 -4.1354 -6.77568 7.94472 -7.72512 -21.6831 0 0 0 
0.000196997 -0.000130429 -0.00242101 18.425 -39.2015 -10.0456 22.0258 -7.68023 6.04682 -7.52345e-007 4.38409e-007 -1.74166e-007 102.672 21.0926 -105.106 -1.06847e-005 69.9542 -1.57818e-005 0 0 0 0 0 0 0 0 0 0 0 0 -171.939 1.73053 -175.182 48.941 20.9268 72.3549 0 0 0 -6.92338 -7.07373 -5.67182 16.5567 -17.0064 -28.5977 0 0 0 
0.00021426 -0.000142966 -0.00242101 22.2678 -45.8071 -10.6127 20.4453 0.114899 6.74736 0 0 0 102.508 21.2691 -108.104 -2.04467e-005 69.6559 -1.93444e-005 -5.04042e-007 -5.86588e-007 -2.78288e-007 0 0 0 0 0 0 0 0 0 164.393 -60.5652 -157.987 53.5547 -0.681189 34.6293 0 0 0 -11.5429 -22.3316 -8.68355 31.5858 -10.6963 -22.8843 0 0 0 
0.00021426 -0.000147858 -0.00241598 25.0101 -46.2685 -11.1245 20.9278 2.08032 8.23669 0 0 0 100.181 23.9265 -127.989 6.65176e-007 70.7776 -3.45511e-006 0 0 0 0 0 0 0 0 0 0 0 0 150.991 -65.7322 -147.032 54.6535 -1.50791 29.5508 0 0 0 -13.2791 -22.1614 -10.282 29.6337 -11.6963 -23.081 0 0 0 
0.00021426 -0.000167672 -0.00241149 35.0914 -52.5977 -13.9829 17.9225 10.795 11.1549 0 0 0 98.2697 28.5675 -139.763 -1.50596e-005 75.8224 -1.69487e-005 0 0 0 0 0 0 0 0 0 0 0 0 37.2131 -55.92 -36.8948 55.975 3.54058 -7.03648 0 0 0 -13.8059 -22.7355 -17.8548 27.8275 -4.3929 -16.245 0 0 0 
0.00021426 -0.000171316 -0.00241149 37.3599 -55.1436 -13.2326 19.3889 13.2259 11.1554 -1.76428e-007 6.08476e-007 2.00335e-007 96.0745 29.5536 -140.274 1.25478e-005 76.0662 6.47361e-006 0 0 0 0 0 0 0 0 0 0 0 0 30.1717 -44.5097 -31.5308 50.6229 8.87981 -15.9819 5.22489e-007 6.82861e-007 -7.55533e-007 -13.2681 -27.5712 -19.2228 32.8176 -4.49036 -19.4331 0 0 0 
0.000213418 -0.000174159 -0.00241149 38.3615 -54.9072 -11.8466 20.5436 13.3526 10.8048 0 0 0 93.9687 30.8244 -139.914 -1.18158e-005 77.09 -1.25925e-005 0 0 0 0 0 0 0 0 0 0 0 0 25.3211 -33.5594 -28.9496 41.1328 11.053 -28.0416 0 0 0 -13.0054 -29.6985 -21.4428 32.6607 -4.80612 -18.27 0 0 0 
0.000212569 -0.000174159 -0.00240765 41.5785 -55.9691 -11.975 26.5041 12.5053 15.8109 0 0 0 86.6204 35.8175 -138.32 -9.10884 7.29388 -1.17056 0 0 0 0 0 0 0 0 0 0 0 0 25.4483 -31.1137 -32.861 40.3044 10.9101 -26.7681 0 0 0 -10.9183 -33.4805 -24.7538 34.9563 -4.03121 -17.4057 -3.66081e-007 -8.01006e-007 2.87894e-007 
0.000213418 -0.000181551 -0.00240756 43.4316 -56.2523 -12.0396 24.844 14.4484 14.2934 5.44921e-007 5.83662e-007 6.00605e-007 90.742 35.5866 -136.819 -3.64208 10.1025 -1.06252 0 0 0 0 0 0 0 0 0 0 0 0 27.7824 -31.3308 -34.7539 41.5576 12.8607 -24.1999 0 0 0 -11.5619 -33.008 -25.2726 34.75 -4.45026 -19.1775 -4.46655e-007 -8.23179e-007 2.24454e-007 
0.000216852 -0.00018736 -0.00240694 44.46 -56.0593 -11.4699 24.7522 13.2529 14.4241 -2.04634e-006 4.43898e-007 -5.75971e-007 91.4482 36.9812 -134.452 0.605481 12.1448 -0.456866 0 0 0 0 0 0 0 0 0 0 0 0 26.5478 -28.4861 -35.4932 39.5829 13.0283 -24.9472 0 0 0 -14.9614 -27.1198 -24.73 27.3814 -7.87599 -22.415 0 0 0 
0.000232474 -0.000195987 -0.0024056 49.3356 -62.7122 -12.083 19.9274 -0.218864 16.0242 0 0 0 117.804 45.7979 -99.5045 12.0967 12.3387 3.59034 0 0 0 0 0 0 0 0 0 0 0 0 31.0441 -22.178 -43.9062 39.7245 9.64646 -16.7511 0 0 0 -6.70551 -33.1471 -31.0802 30.732 -6.04996 -19.8977 0 0 0 
0.000239833 -0.000201239 -0.00240361 51.0767 -60.7038 -9.84841 19.2615 -3.63124 13.2553 0 0 0 120.848 45.3894 -42.8766 2.70632e-006 22.6331 9.94053e-007 0 0 0 0 0 0 0 0 0 0 0 0 32.5536 -22.5565 -50.0634 41.7085 8.76376 -14.4448 0 0 0 -7.08067 -33.5722 -33.3151 30.1692 -6.10584 -19.9504 0 0 0 
